<svg id="Warstwa_1" data-name="Warstwa 1" xmlns="http://www.w3.org/2000/svg" viewBox="0 0 382 47"><defs><style>.cls-1{fill:#f13061;}</style></defs><title>logo</title><path d="M32.7,36.76l0-18.9L23.39,33.43H20.1L10.88,18.27v18.5H4V5.26h6L21.86,24.84,33.47,5.26h6l.09,31.5Z"/><path d="M51.17,35.52a11.87,11.87,0,0,1-4.75-4.43,12.21,12.21,0,0,1-1.71-6.44,12.21,12.21,0,0,1,1.71-6.44,11.88,11.88,0,0,1,4.75-4.43,15.49,15.49,0,0,1,13.7,0,11.92,11.92,0,0,1,4.73,4.43,12.22,12.22,0,0,1,1.71,6.44,12.22,12.22,0,0,1-1.71,6.44,11.92,11.92,0,0,1-4.73,4.43,15.5,15.5,0,0,1-13.7,0Zm11.29-6a6.79,6.79,0,0,0,1.73-4.88,6.79,6.79,0,0,0-1.73-4.88A5.85,5.85,0,0,0,58,18a5.92,5.92,0,0,0-4.45,1.82,6.74,6.74,0,0,0-1.76,4.88,6.74,6.74,0,0,0,1.76,4.88A5.92,5.92,0,0,0,58,31.36,5.85,5.85,0,0,0,62.47,29.54Z"/><path d="M68.57,44.5l1.89-5.09a5,5,0,0,0,3,.86,2.66,2.66,0,0,0,2.12-.88,3.92,3.92,0,0,0,.77-2.63V12.55h7V36.72a9.13,9.13,0,0,1-2.41,6.68,9,9,0,0,1-6.73,2.45A9.8,9.8,0,0,1,68.57,44.5Zm8.1-36.45a3.65,3.65,0,0,1-1.21-2.79,3.65,3.65,0,0,1,1.21-2.79,4.45,4.45,0,0,1,3.15-1.12A4.56,4.56,0,0,1,83,2.43a3.46,3.46,0,0,1,1.22,2.7A3.82,3.82,0,0,1,83,8a4.4,4.4,0,0,1-3.15,1.15A4.45,4.45,0,0,1,76.67,8.05Z"/><path d="M113.39,26.64H95.07a5.7,5.7,0,0,0,2.34,3.56A7.75,7.75,0,0,0,102,31.5a9.29,9.29,0,0,0,3.35-.56,8.11,8.11,0,0,0,2.72-1.78l3.74,4.05q-3.42,3.91-10,3.91a15.8,15.8,0,0,1-7.25-1.6,11.71,11.71,0,0,1-4.86-4.43A12.21,12.21,0,0,1,88,24.66a12.37,12.37,0,0,1,1.69-6.41,11.83,11.83,0,0,1,4.64-4.46,14.35,14.35,0,0,1,13-.07,11.18,11.18,0,0,1,4.52,4.39,13.09,13.09,0,0,1,1.64,6.64Q113.52,24.88,113.39,26.64ZM97,18.85a5.75,5.75,0,0,0-2,3.69h11.92a5.81,5.81,0,0,0-2-3.67,5.92,5.92,0,0,0-4-1.37A6,6,0,0,0,97,18.85Z"/><path d="M156.41,31.81v5H129.54V32.85l18.54-22.63H129.86v-5h26V9.18L137.28,31.81Z"/><path d="M184.31,3.37V36.76h-5.4V33.66a8.7,8.7,0,0,1-3.44,2.57,11.64,11.64,0,0,1-4.52.85,12.67,12.67,0,0,1-6.23-1.53,11,11,0,0,1-4.34-4.34,13,13,0,0,1-1.58-6.46,12.86,12.86,0,0,1,1.58-6.44A11,11,0,0,1,164.71,14a12.67,12.67,0,0,1,6.23-1.53,11.44,11.44,0,0,1,4.37.81,8.78,8.78,0,0,1,3.38,2.43V3.37Zm-9,28a6.66,6.66,0,0,0,2.56-2.63,8.05,8.05,0,0,0,.94-4,8.06,8.06,0,0,0-.94-4,6.67,6.67,0,0,0-2.56-2.63,7.66,7.66,0,0,0-7.29,0,6.67,6.67,0,0,0-2.56,2.63,8.05,8.05,0,0,0-.95,4,8,8,0,0,0,.95,4A6.66,6.66,0,0,0,168,31.34a7.66,7.66,0,0,0,7.29,0Z"/><path d="M205.59,12.46v5.35a7.12,7.12,0,0,0-1.31-.14,6.79,6.79,0,0,0-5.13,1.91,7.63,7.63,0,0,0-1.85,5.51V36.76h-5.62v-24H197v3.51Q199.47,12.46,205.59,12.46Z"/><path d="M214.37,35.5a11.48,11.48,0,0,1-4.57-4.39,12.38,12.38,0,0,1-1.64-6.37,12.26,12.26,0,0,1,1.64-6.34A11.53,11.53,0,0,1,214.37,14a14.59,14.59,0,0,1,13.19,0,11.54,11.54,0,0,1,4.57,4.37,12.27,12.27,0,0,1,1.64,6.34,12.39,12.39,0,0,1-1.64,6.37,11.49,11.49,0,0,1-4.57,4.39,14.59,14.59,0,0,1-13.19,0Zm11.7-5.31a7.45,7.45,0,0,0,2-5.45,7.45,7.45,0,0,0-2-5.44,6.87,6.87,0,0,0-5.13-2.07,6.8,6.8,0,0,0-5.11,2.07,7.5,7.5,0,0,0-2,5.44,7.5,7.5,0,0,0,2,5.45,6.8,6.8,0,0,0,5.11,2.07A6.87,6.87,0,0,0,226.07,30.19Z"/><path d="M276,12.73l-8.87,24h-5.4L255.5,20.2l-6.3,16.56h-5.4l-8.82-24h5.31l6.35,17.73,6.62-17.73H258l6.48,17.82L271,12.73Z"/><path d="M280.11,7.8a3.16,3.16,0,0,1-1-2.41,3.16,3.16,0,0,1,1-2.41,3.61,3.61,0,0,1,2.57-1,3.72,3.72,0,0,1,2.56.92,3,3,0,0,1,1,2.32,3.39,3.39,0,0,1-1,2.5,3.5,3.5,0,0,1-2.59,1A3.61,3.61,0,0,1,280.11,7.8Zm-.27,4.93h5.63v24h-5.62Z"/><path d="M315.34,26.55H296.49a6.53,6.53,0,0,0,2.59,4.21,8.48,8.48,0,0,0,5.2,1.55,8.76,8.76,0,0,0,6.52-2.61l3,3.47a10.15,10.15,0,0,1-4.09,2.92,16.24,16.24,0,0,1-12.56-.58,11.34,11.34,0,0,1-4.66-4.39,12.38,12.38,0,0,1-1.64-6.37,12.57,12.57,0,0,1,1.6-6.32A11.33,11.33,0,0,1,296.89,14a12.93,12.93,0,0,1,6.39-1.57A12.61,12.61,0,0,1,309.56,14a11,11,0,0,1,4.32,4.37,13.24,13.24,0,0,1,1.55,6.5Q315.43,25.47,315.34,26.55Zm-16.63-8a6.72,6.72,0,0,0-2.27,4.25h13.63a6.63,6.63,0,0,0-2.21-4.23A6.71,6.71,0,0,0,303.28,17,6.79,6.79,0,0,0,298.72,18.56Z"/><path class="cls-1" d="M365,25.5a1.5,1.5,0,0,1-1.3-.74l-1.1-2c-1.06,4.87-2,9.76-3.16,14.61a1.51,1.51,0,0,1-2.89,0q-3-9.84-6-19.68l-1.88,6.68a1.53,1.53,0,0,1-1.45,1.1H335.61c2.33,3.44,5.58,6.57,8.33,9.39a133.42,133.42,0,0,0,13.19,11.87,133.44,133.44,0,0,0,13.08-12,76,76,0,0,0,8.1-9.27Z"/><path class="cls-1" d="M333.87,22.5h12.21L349,12a1.51,1.51,0,0,1,2.89,0q2.91,9.57,5.85,19.13c.92-4.3,1.77-8.6,2.78-12.88a1.52,1.52,0,0,1,2.74-.36c.87,1.55,1.71,3.13,2.61,4.67l.46-.05a19.27,19.27,0,0,1,2.91,0h10.78A15.18,15.18,0,0,0,381.24,19c2.68-12.91-5.9-18.3-14.1-18.25-7.88,0-10.2,8.14-10.2,8.14S354.56.84,346.68.89c-8.2,0-16.71,5.51-13.92,18.4A15,15,0,0,0,333.87,22.5Z"/><path class="cls-1" d="M365.7,22.56c-.36-.2-.54,0,0,0Z"/></svg>